                            <svg class="home__blob" viewBox="0 0 200 200" xmlns="http://www.w3.org/2000/svg" xmlns:xlink="http://www.w3.org/1999/xlink">
                                <mask id="mask0" mask-type="alpha">
                                    <path d="M48.9,-60.2C61.1,-48,67.3,-30.5,71.7,-11.7C76,7,78.6,26.9,71.7,43.9C64.9,60.8,48.6,74.8,31.1,77.9C13.6,81,-5.1,73.3,-22,65.1C-38.9,56.9,-53.9,48.4,-63,35.2C-72,22,-75,4.1,-73.4,-14.3C-71.7,-32.6,-65.4,-51.5,-52.4,-63.5C-39.3,-75.6,-19.7,-80.8,-0.7,-80C18.3,-79.2,36.7,-72.4,48.9,-60.2Z" transform="translate(100 100)" />
                                </mask>
                                <g mask="url(#mask0)">
                                    <path d="M48.9,-60.2C61.1,-48,67.3,-30.5,71.7,-11.7C76,7,78.6,26.9,71.7,43.9C64.9,60.8,48.6,74.8,31.1,77.9C13.6,81,-5.1,73.3,-22,65.1C-38.9,56.9,-53.9,48.4,-63,35.2C-72,22,-75,4.1,-73.4,-14.3C-71.7,-32.6,-65.4,-51.5,-52.4,-63.5C-39.3,-75.6,-19.7,-80.8,-0.7,-80C18.3,-79.2,36.7,-72.4,48.9,-60.2Z" transform="translate(100 100)" />
                                    
                                    <image class="home__blob-img" xlink:href="assets/img/profile-removebg-preview.png"/>
                                </g>
                            </svg>